<?xml version="1.0" encoding="iso-8859-1"?>
<!-- Generator: Adobe Illustrator 19.0.0, SVG Export Plug-In . SVG Version: 6.00 Build 0)  -->
<svg version="1.1" id="Layer_1" xmlns="http://www.w3.org/2000/svg" xmlns:xlink="http://www.w3.org/1999/xlink" x="0px" y="0px"
	 viewBox="0 0 297 297" style="enable-background:new 0 0 297 297;" xml:space="preserve">
<g>
	<g>
		<g>
			<path d="M233.523,26.745c-4.158-2.907-9.802-2.412-13.39,1.174L188.93,59.122c-2.292,2.292-3.392,5.517-2.977,8.732
				c0.415,3.215,2.296,6.055,5.094,7.691c25.844,15.109,41.898,43.063,41.898,72.955c0,46.564-37.883,84.446-84.446,84.446
				c-46.563,0-84.445-37.882-84.445-84.446c0-29.891,16.054-57.845,41.897-72.955c2.798-1.636,4.679-4.476,5.094-7.691
				c0.415-3.215-0.685-6.44-2.977-8.732L76.866,27.919c-3.589-3.588-9.232-4.081-13.39-1.174C23.73,54.549,0,100.064,0,148.5
				C0,230.383,66.617,297,148.5,297S297,230.383,297,148.5C297,100.064,273.27,54.549,233.523,26.745z M148.5,276.085
				c-70.351,0-127.585-57.234-127.585-127.585c0-38.698,17.636-75.23,47.577-99.375l15.827,15.828
				c-25.681,19.796-41.18,50.734-41.18,83.548c0,58.097,47.265,105.362,105.362,105.362c58.097,0,105.361-47.266,105.361-105.363
				c0-32.812-15.503-63.752-41.181-83.549l15.828-15.827c29.94,24.145,47.577,60.677,47.577,99.375
				C276.085,218.851,218.851,276.085,148.5,276.085z"/>
			<path d="M128.107,141.702h40.785c5.775,0,10.458-4.682,10.458-10.458V10.458C179.35,4.682,174.668,0,168.893,0h-40.785
				c-5.775,0-10.458,4.682-10.458,10.458v120.787C117.65,137.02,122.332,141.702,128.107,141.702z M138.565,20.915h19.87v99.871
				h-19.87V20.915z"/>
		</g>
	</g>
</g>
<g>
</g>
<g>
</g>
<g>
</g>
<g>
</g>
<g>
</g>
<g>
</g>
<g>
</g>
<g>
</g>
<g>
</g>
<g>
</g>
<g>
</g>
<g>
</g>
<g>
</g>
<g>
</g>
<g>
</g>
</svg>
